<svg width="237" height="24" viewBox="0 0 237 24" fill="none" xmlns="http://www.w3.org/2000/svg">
<path d="M14.6672 10.3602L4.82328 0.0354281H0V24H6.4631V11.1447L14.6672 19.7284L22.8359 11.1447V24H29.3345V0.0354281H24.5112L14.6672 10.3602V10.3602ZM31.3792 24H58.3197V0.101223H31.3792V24ZM37.822 6.15437H51.8364V17.9469H37.822V6.15437ZM60.3239 24H87.2644V0.101223H60.3239V24ZM66.8073 6.15437H80.8216V17.9469H66.8073V6.15437ZM108.911 13.7461L94.2134 0H89.2889V24H95.752V10.3248L110.45 24H115.374V0H108.911V13.7461ZM124.064 6.15437H142.598V0.101223H117.606V13.2299L136.272 15.9983V17.7444H117.399V24H142.735V10.8359L124.064 8.10291V6.15437V6.15437ZM157.478 0L144.749 19.3184V24H174.104V19.3184L161.375 0H157.478ZM153.712 17.4711L159.391 8.82159L165.135 17.4711H153.712ZM190.78 10.3602L180.936 0.0354281H176.118V24H182.576V11.1447L190.78 19.7284L198.954 11.1447V24H205.447V0.0354281H200.629L190.78 10.3602ZM224.088 0H220.191L207.472 19.3184V24H236.827V19.3184L224.088 0ZM216.43 17.4711L222.109 8.82159L227.848 17.4711H216.43Z" fill="white"/>
</svg>
